<svg id="Layer_1" data-name="Layer 1" xmlns="http://www.w3.org/2000/svg" viewBox="0 0 344.89 576.37"><title>10zero</title><path d="M672.64,441.8q0,64.48-9.06,117.7T633.53,651q-21,38.3-54.91,59.28t-83.62,21q-47,0-79.19-18.82T364,657.08q-19.65-36.56-27.94-90T327.75,444.4q0-64,9.25-117.48t30.06-91.73q20.81-38.3,54.72-59.28t83.24-21q47.4,0,79.58,18.82t51.83,55.39q19.65,36.57,27.94,90T672.64,441.8ZM604.82,447q0-42-2.7-75.29a500.08,500.08,0,0,0-7.9-58.85q-5.2-25.53-13.49-43.92t-19.85-30.29a70,70,0,0,0-26.4-17.31,96.87,96.87,0,0,0-33.33-5.41q-32.76,0-53.18,17.31t-32.18,47.6q-11.76,30.29-16,71a844.39,844.39,0,0,0-4.24,87.41q0,62.75,5.78,106.66t18.3,71.61q12.52,27.7,32,40.24t47.21,12.55q21.58,0,38-7.79a80.24,80.24,0,0,0,28.13-22.28q11.75-14.49,19.46-34.83a264.67,264.67,0,0,0,12.33-45,431.36,431.36,0,0,0,6.36-53.44Q604.82,478.15,604.82,447Z" transform="translate(-327.75 -154.91)"/></svg>