<?xml version="1.0" encoding="utf-8"?>
<!-- Generator: Adobe Illustrator 21.0.2, SVG Export Plug-In . SVG Version: 6.00 Build 0)  -->
<svg version="1.1" id="Layer_1" xmlns="http://www.w3.org/2000/svg" xmlns:xlink="http://www.w3.org/1999/xlink" x="0px" y="0px"
	 viewBox="0 0 760 760" style="enable-background:new 0 0 760 760;" xml:space="preserve">
<title>plus</title>
<path d="M0,380L0,380c0-41.4,44.8-75,100-75h560c55.2,0,100,33.6,100,75l0,0c0,41.4-44.8,75-100,75H100C44.8,455,0,421.4,0,380z"/>
<path d="M380,760L380,760c-41.4,0-75-44.8-75-100V100c0-55.2,33.6-100,75-100l0,0c41.4,0,75,44.8,75,100v560
	C455,715.2,421.4,760,380,760z"/>
</svg>
