<?xml version="1.0" encoding="utf-8"?>
<!-- Generator: Adobe Illustrator 21.0.2, SVG Export Plug-In . SVG Version: 6.00 Build 0)  -->
<svg version="1.1" id="Layer_1" xmlns="http://www.w3.org/2000/svg" xmlns:xlink="http://www.w3.org/1999/xlink" x="0px" y="0px"
	 viewBox="0 0 596 596" style="enable-background:new 0 0 596 596;" xml:space="preserve">
<title>mult</title>
<path d="M567.7,567.7L567.7,567.7C538.4,597,483,589.1,444,550L48,154C8.9,115,1,59.6,30.3,30.3l0,0C59.6,1,115,8.9,154,48l396,396
	C589.1,483,597,538.4,567.7,567.7z"/>
<title>mult</title>
<path d="M29.3,567.7L29.3,567.7C0,538.4,7.9,483,47,444L443,48C482,8.9,537.4,1,566.7,30.3l0,0C596,59.6,588.1,115,549,154L153,550
	C114,589.1,58.6,597,29.3,567.7z"/>
</svg>
