<?xml version="1.0" encoding="utf-8"?>
<!-- Generator: Adobe Illustrator 21.0.2, SVG Export Plug-In . SVG Version: 6.00 Build 0)  -->
<svg version="1.1" id="Layer_1" xmlns="http://www.w3.org/2000/svg" xmlns:xlink="http://www.w3.org/1999/xlink" x="0px" y="0px"
	 viewBox="0 0 760 700" style="enable-background:new 0 0 760 700;" xml:space="preserve">
<title>divide</title>
<path d="M0,350L0,350c0-41.4,44.8-75,100-75h560c55.2,0,100,33.6,100,75l0,0c0,41.4-44.8,75-100,75H100C44.8,425,0,391.4,0,350z"/>
<path d="M305,100L305,100c0-41.4,33.6-75,75-75l0,0c41.4,0,75,33.6,75,75l0,0c0,41.4-33.6,75-75,75l0,0C338.6,175,305,141.4,305,100
	z"/>
<path d="M305,600L305,600c0-41.4,33.6-75,75-75l0,0c41.4,0,75,33.6,75,75l0,0c0,41.4-33.6,75-75,75l0,0C338.6,675,305,641.4,305,600
	z"/>
</svg>
