<?xml version="1.0" encoding="utf-8"?>
<!-- Generator: Adobe Illustrator 21.0.2, SVG Export Plug-In . SVG Version: 6.00 Build 0)  -->
<svg version="1.1" id="Layer_1" xmlns="http://www.w3.org/2000/svg" xmlns:xlink="http://www.w3.org/1999/xlink" x="0px" y="0px"
	 viewBox="0 0 760 600" style="enable-background:new 0 0 760 600;" xml:space="preserve">
<title>equal</title>
<path d="M0,480L0,480c0-41.4,44.8-75,100-75h560c55.2,0,100,33.6,100,75l0,0c0,41.4-44.8,75-100,75H100C44.8,555,0,521.4,0,480z"/>
<path d="M0,120L0,120c0-41.4,44.8-75,100-75h560c55.2,0,100,33.6,100,75l0,0c0,41.4-44.8,75-100,75H100C44.8,195,0,161.4,0,120z"/>
</svg>
