<svg id="Layer_1" data-name="Layer 1" xmlns="http://www.w3.org/2000/svg" viewBox="0 0 86.58 105.72"><title>17comma</title><path d="M515.58,293.51a42.61,42.61,0,0,1-.73,8.19,26.29,26.29,0,0,1-2.44,7,33.62,33.62,0,0,1-4.52,6.54,69.64,69.64,0,0,1-7,6.82L467.48,351.7a12.65,12.65,0,0,1-2.81,1.72,23.21,23.21,0,0,1-3.91,1.29,32.12,32.12,0,0,1-5.37.79q-3.06.22-7.69.21-4.15,0-7-.21a14.46,14.46,0,0,1-4-.72c-.82-.34-1.26-.79-1.34-1.36a2.69,2.69,0,0,1,.85-2L468.7,311.9V293.51a12.2,12.2,0,0,1,1.34-6.18,8.19,8.19,0,0,1,4.27-3.45,27.74,27.74,0,0,1,7.32-1.58q4.39-.43,10.74-.43,6.1,0,10.5.43a26.05,26.05,0,0,1,7.2,1.58,8.25,8.25,0,0,1,4.15,3.45A12.24,12.24,0,0,1,515.58,293.51Z" transform="translate(-435.36 -250)"/><circle cx="50.19" cy="36.39" r="36.39"/></svg>