<?xml version="1.0" encoding="utf-8"?>
<!-- Generator: Adobe Illustrator 22.1.0, SVG Export Plug-In . SVG Version: 6.00 Build 0)  -->
<svg version="1.1" id="Layer_1" xmlns="http://www.w3.org/2000/svg" xmlns:xlink="http://www.w3.org/1999/xlink" x="0px" y="0px"
	 viewBox="0 0 1000 1200" style="enable-background:new 0 0 1000 1200;" xml:space="preserve">
<rect x="1061.7" y="582.4" style="fill:none;" width="0.3" height="2.6"/>
<path d="M290.8,1195.4L290.8,1195.4c-14-12.2-34-30.9-55.7-55.7c0,0-59.8-68.6-100.2-162.3C73.6,835,72.9,658.1,73.2,598.1
	c0,0,20-320.3,131.6-526.4c13-24,44.9-52.9,46.7-54.5c5.4-4.9,14-11.9,26.6-14.9c4.1-1,8.3-1.5,12.7-1.5h0
	c15.3-3.3,31.1,3.3,39.3,16.4c8.7,13.8,7.1,32-3.9,44.4c-23.4,40-59.7,108.2-89.8,199.3c-12,36.4-51.7,164-52,337.2
	c-0.2,97.7-0.3,187.9,40.5,293.6c26.9,69.7,40.7,105.5,70.9,151.9c33,50.8,76.5,100.2,60.7,131.6c-2.5,4.9-8.9,14.4-20.2,20.2
	C316.5,1205.6,295.4,1197.4,290.8,1195.4z"/>
<path d="M432,702"/>
<path d="M716.4,1195L716.4,1195c14-12.2,34-30.9,55.6-55.6c0,0,59.8-68.6,100.1-162.2c61.3-142.4,62-319.2,61.8-379.1
	c0,0-20-320.1-131.5-526.1c-13-24-44.9-52.9-46.7-54.5c-5.4-4.9-14-11.9-26.6-14.9c-4.1-1-8.3-1.5-12.7-1.5h0
	c-15.3-3.3-31.1,3.3-39.3,16.3c-8.7,13.8-7.1,32,3.9,44.4c23.4,40,59.7,108.1,89.7,199.2c12,36.3,51.6,164,51.9,337
	c0.2,97.6,0.3,187.8-40.5,293.4c-26.9,69.6-40.7,105.4-70.8,151.8c-33,50.8-76.4,100.1-60.7,131.5c2.5,4.9,8.9,14.4,20.2,20.2
	C690.7,1205.2,711.8,1197,716.4,1195z"/>
</svg>
