<?xml version="1.0" encoding="utf-8"?>
<!-- Generator: Adobe Illustrator 22.1.0, SVG Export Plug-In . SVG Version: 6.00 Build 0)  -->
<svg version="1.1" id="Layer_1" xmlns="http://www.w3.org/2000/svg" xmlns:xlink="http://www.w3.org/1999/xlink" x="0px" y="0px"
	 viewBox="0 0 1000 2000" style="enable-background:new 0 0 1000 2000;" xml:space="preserve">
<path d="M174,270.5L174,270.5c-16.5,0-30-13.5-30-30V98c0-16.5,13.5-30,30-30h0c16.5,0,30,13.5,30,30v142.5
	C204,257,190.5,270.5,174,270.5z"/>
<path d="M174,788L174,788c-16.5,0-30-13.5-30-30V615.5c0-16.5,13.5-30,30-30h0c16.5,0,30,13.5,30,30V758
	C204,774.5,190.5,788,174,788z"/>
<path d="M174,510.5L174,510.5c-16.5,0-30-13.5-30-30v-105c0-16.5,13.5-30,30-30h0c16.5,0,30,13.5,30,30v105
	C204,497,190.5,510.5,174,510.5z"/>
<path d="M834,270.5L834,270.5c-16.5,0-30-13.5-30-30V98c0-16.5,13.5-30,30-30l0,0c16.5,0,30,13.5,30,30v142.5
	C864,257,850.5,270.5,834,270.5z"/>
<path d="M834,788L834,788c-16.5,0-30-13.5-30-30V615.5c0-16.5,13.5-30,30-30l0,0c16.5,0,30,13.5,30,30V758
	C864,774.5,850.5,788,834,788z"/>
<path d="M834,510.5L834,510.5c-16.5,0-30-13.5-30-30v-105c0-16.5,13.5-30,30-30l0,0c16.5,0,30,13.5,30,30v105
	C864,497,850.5,510.5,834,510.5z"/>
<path d="M661.5,758L661.5,758c0-16.5,13.5-30,30-30H834c16.5,0,30,13.5,30,30l0,0c0,16.5-13.5,30-30,30H691.5
	C675,788,661.5,774.5,661.5,758z"/>
<path d="M144,758L144,758c0-16.5,13.5-30,30-30h142.5c16.5,0,30,13.5,30,30l0,0c0,16.5-13.5,30-30,30H174
	C157.5,788,144,774.5,144,758z"/>
<path d="M421.5,758L421.5,758c0-16.5,13.5-30,30-30h105c16.5,0,30,13.5,30,30l0,0c0,16.5-13.5,30-30,30h-105
	C435,788,421.5,774.5,421.5,758z"/>
<path d="M661.5,98L661.5,98c0-16.5,13.5-30,30-30H834c16.5,0,30,13.5,30,30v0c0,16.5-13.5,30-30,30H691.5
	C675,128,661.5,114.5,661.5,98z"/>
<path d="M144,98L144,98c0-16.5,13.5-30,30-30h142.5c16.5,0,30,13.5,30,30v0c0,16.5-13.5,30-30,30H174C157.5,128,144,114.5,144,98z"
	/>
<path d="M421.5,98L421.5,98c0-16.5,13.5-30,30-30h105c16.5,0,30,13.5,30,30v0c0,16.5-13.5,30-30,30h-105
	C435,128,421.5,114.5,421.5,98z"/>
<path d="M165,1408.5L165,1408.5c-16.5,0-30-13.5-30-30V1236c0-16.5,13.5-30,30-30h0c16.5,0,30,13.5,30,30v142.5
	C195,1395,181.5,1408.5,165,1408.5z"/>
<path d="M165,1926L165,1926c-16.5,0-30-13.5-30-30v-142.5c0-16.5,13.5-30,30-30h0c16.5,0,30,13.5,30,30V1896
	C195,1912.5,181.5,1926,165,1926z"/>
<path d="M165,1648.5L165,1648.5c-16.5,0-30-13.5-30-30v-105c0-16.5,13.5-30,30-30h0c16.5,0,30,13.5,30,30v105
	C195,1635,181.5,1648.5,165,1648.5z"/>
<path d="M825,1408.5L825,1408.5c-16.5,0-30-13.5-30-30V1236c0-16.5,13.5-30,30-30l0,0c16.5,0,30,13.5,30,30v142.5
	C855,1395,841.5,1408.5,825,1408.5z"/>
<path d="M825,1926L825,1926c-16.5,0-30-13.5-30-30v-142.5c0-16.5,13.5-30,30-30l0,0c16.5,0,30,13.5,30,30V1896
	C855,1912.5,841.5,1926,825,1926z"/>
<path d="M825,1648.5L825,1648.5c-16.5,0-30-13.5-30-30v-105c0-16.5,13.5-30,30-30l0,0c16.5,0,30,13.5,30,30v105
	C855,1635,841.5,1648.5,825,1648.5z"/>
<path d="M652.5,1896L652.5,1896c0-16.5,13.5-30,30-30H825c16.5,0,30,13.5,30,30l0,0c0,16.5-13.5,30-30,30H682.5
	C666,1926,652.5,1912.5,652.5,1896z"/>
<path d="M135,1896L135,1896c0-16.5,13.5-30,30-30h142.5c16.5,0,30,13.5,30,30l0,0c0,16.5-13.5,30-30,30H165
	C148.5,1926,135,1912.5,135,1896z"/>
<path d="M412.5,1896L412.5,1896c0-16.5,13.5-30,30-30h105c16.5,0,30,13.5,30,30l0,0c0,16.5-13.5,30-30,30h-105
	C426,1926,412.5,1912.5,412.5,1896z"/>
<path d="M652.5,1236L652.5,1236c0-16.5,13.5-30,30-30H825c16.5,0,30,13.5,30,30l0,0c0,16.5-13.5,30-30,30H682.5
	C666,1266,652.5,1252.5,652.5,1236z"/>
<path d="M135,1236L135,1236c0-16.5,13.5-30,30-30h142.5c16.5,0,30,13.5,30,30l0,0c0,16.5-13.5,30-30,30H165
	C148.5,1266,135,1252.5,135,1236z"/>
<path d="M412.5,1236L412.5,1236c0-16.5,13.5-30,30-30h105c16.5,0,30,13.5,30,30l0,0c0,16.5-13.5,30-30,30h-105
	C426,1266,412.5,1252.5,412.5,1236z"/>
<path d="M928,1077H72c-39.6,0-72-32.4-72-72v0c0-39.6,32.4-72,72-72h856c39.6,0,72,32.4,72,72v0C1000,1044.6,967.6,1077,928,1077z"
	/>
</svg>
