<?xml version="1.0" encoding="utf-8"?>
<!-- Generator: Adobe Illustrator 22.1.0, SVG Export Plug-In . SVG Version: 6.00 Build 0)  -->
<svg version="1.1" id="Layer_1" xmlns="http://www.w3.org/2000/svg" xmlns:xlink="http://www.w3.org/1999/xlink" x="0px" y="0px"
	 viewBox="0 0 1000 1200" style="enable-background:new 0 0 1000 1200;" xml:space="preserve">
<path d="M689.5,91.1L689.5,91.1c-7.4,0-13.5-6.1-13.5-13.5V13.5C676,6.1,682.1,0,689.5,0l0,0c7.4,0,13.5,6.1,13.5,13.5v64.1
	C703,85.1,696.9,91.1,689.5,91.1z"/>
<path d="M689.5,324L689.5,324c-7.4,0-13.5-6.1-13.5-13.5v-64.1c0-7.4,6.1-13.5,13.5-13.5l0,0c7.4,0,13.5,6.1,13.5,13.5v64.1
	C703,317.9,696.9,324,689.5,324z"/>
<path d="M689.5,199.1L689.5,199.1c-7.4,0-13.5-6.1-13.5-13.5v-47.3c0-7.4,6.1-13.5,13.5-13.5l0,0c7.4,0,13.5,6.1,13.5,13.5v47.3
	C703,193.1,696.9,199.1,689.5,199.1z"/>
<path d="M986.5,91.1L986.5,91.1c-7.4,0-13.5-6.1-13.5-13.5V13.5C973,6.1,979.1,0,986.5,0l0,0c7.4,0,13.5,6.1,13.5,13.5v64.1
	C1000,85.1,993.9,91.1,986.5,91.1z"/>
<path d="M986.5,324L986.5,324c-7.4,0-13.5-6.1-13.5-13.5v-64.1c0-7.4,6.1-13.5,13.5-13.5l0,0c7.4,0,13.5,6.1,13.5,13.5v64.1
	C1000,317.9,993.9,324,986.5,324z"/>
<path d="M986.5,199.1L986.5,199.1c-7.4,0-13.5-6.1-13.5-13.5v-47.3c0-7.4,6.1-13.5,13.5-13.5l0,0c7.4,0,13.5,6.1,13.5,13.5v47.3
	C1000,193.1,993.9,199.1,986.5,199.1z"/>
<path d="M908.9,310.5L908.9,310.5c0-7.4,6.1-13.5,13.5-13.5h64.1c7.4,0,13.5,6.1,13.5,13.5l0,0c0,7.4-6.1,13.5-13.5,13.5h-64.1
	C915,324,908.9,317.9,908.9,310.5z"/>
<path d="M676,310.5L676,310.5c0-7.4,6.1-13.5,13.5-13.5h64.1c7.4,0,13.5,6.1,13.5,13.5l0,0c0,7.4-6.1,13.5-13.5,13.5h-64.1
	C682.1,324,676,317.9,676,310.5z"/>
<path d="M800.9,310.5L800.9,310.5c0-7.4,6.1-13.5,13.5-13.5h47.3c7.4,0,13.5,6.1,13.5,13.5l0,0c0,7.4-6.1,13.5-13.5,13.5h-47.3
	C807,324,800.9,317.9,800.9,310.5z"/>
<path d="M908.9,13.5L908.9,13.5C908.9,6.1,915,0,922.4,0l64.1,0c7.4,0,13.5,6.1,13.5,13.5v0c0,7.4-6.1,13.5-13.5,13.5h-64.1
	C915,27,908.9,20.9,908.9,13.5z"/>
<path d="M676,13.5L676,13.5C676,6.1,682.1,0,689.5,0l64.1,0c7.4,0,13.5,6.1,13.5,13.5v0c0,7.4-6.1,13.5-13.5,13.5h-64.1
	C682.1,27,676,20.9,676,13.5z"/>
<path d="M800.9,13.5L800.9,13.5C800.9,6.1,807,0,814.4,0l47.3,0c7.4,0,13.5,6.1,13.5,13.5v0c0,7.4-6.1,13.5-13.5,13.5h-47.3
	C807,27,800.9,20.9,800.9,13.5z"/>
<path d="M485.2,349L485.2,349c0-15.5,12.7-28.1,28.1-28.1h133.6c15.5,0,28.1,12.7,28.1,28.1v0c0,15.5-12.7,28.1-28.1,28.1H513.3
	C497.8,377.1,485.2,364.5,485.2,349z"/>
<path d="M0,349L0,349c0-15.5,12.7-28.1,28.1-28.1h133.6c15.5,0,28.1,12.7,28.1,28.1v0c0,15.5-12.7,28.1-28.1,28.1H28.1
	C12.7,377.1,0,364.5,0,349z"/>
<path d="M260.2,349L260.2,349c0-15.5,12.7-28.1,28.1-28.1h98.4c15.5,0,28.1,12.7,28.1,28.1v0c0,15.5-12.7,28.1-28.1,28.1h-98.4
	C272.8,377.1,260.2,364.5,260.2,349z"/>
<path d="M485.2,1172L485.2,1172c0-15.5,12.7-28.1,28.1-28.1h133.6c15.5,0,28.1,12.7,28.1,28.1l0,0c0,15.5-12.7,28.1-28.1,28.1H513.3
	C497.8,1200.1,485.2,1187.5,485.2,1172z"/>
<path d="M0,1172L0,1172c0-15.5,12.7-28.1,28.1-28.1h133.6c15.5,0,28.1,12.7,28.1,28.1l0,0c0,15.5-12.7,28.1-28.1,28.1H28.1
	C12.7,1200.1,0,1187.5,0,1172z"/>
<path d="M260.2,1172L260.2,1172c0-15.5,12.7-28.1,28.1-28.1h98.4c15.5,0,28.1,12.7,28.1,28.1l0,0c0,15.5-12.7,28.1-28.1,28.1h-98.4
	C272.8,1200.1,260.2,1187.5,260.2,1172z"/>
<path d="M28.5,1009.7L28.5,1009.7c15.5,0,28.1,12.7,28.1,28.1v133.6c0,15.5-12.7,28.1-28.1,28.1h0c-15.5,0-28.1-12.7-28.1-28.1
	v-133.6C0.4,1022.3,13,1009.7,28.5,1009.7z"/>
<path d="M28.5,784.7L28.5,784.7c15.5,0,28.1,12.7,28.1,28.1v98.4c0,15.5-12.7,28.1-28.1,28.1h0c-15.5,0-28.1-12.7-28.1-28.1v-98.4
	C0.4,797.3,13,784.7,28.5,784.7z"/>
<path d="M648.5,1009.7L648.5,1009.7c15.5,0,28.1,12.7,28.1,28.1v133.6c0,15.5-12.7,28.1-28.1,28.1l0,0c-15.5,0-28.1-12.7-28.1-28.1
	v-133.6C620.4,1022.3,633,1009.7,648.5,1009.7z"/>
<path d="M649.5,323.5L649.5,323.5c15.5,0,28.1,12.7,28.1,28.1v133.6c0,15.5-12.7,28.1-28.1,28.1l0,0c-15.5,0-28.1-12.7-28.1-28.1
	V351.6C621.4,336.2,634,323.5,649.5,323.5z"/>
<path d="M28.5,321.5L28.5,321.5c15.5,0,28.1,12.7,28.1,28.1v133.6c0,15.5-12.7,28.1-28.1,28.1h0c-15.5,0-28.1-12.7-28.1-28.1V349.6
	C0.4,334.2,13,321.5,28.5,321.5z"/>
<path d="M28.5,570.7L28.5,570.7c15.5,0,28.1,12.7,28.1,28.1v98.4c0,15.5-12.7,28.1-28.1,28.1h0c-15.5,0-28.1-12.7-28.1-28.1v-98.4
	C0.4,583.3,13,570.7,28.5,570.7z"/>
<path d="M649.5,790.7L649.5,790.7c15.5,0,28.1,12.7,28.1,28.1v98.4c0,15.5-12.7,28.1-28.1,28.1l0,0c-15.5,0-28.1-12.7-28.1-28.1
	v-98.4C621.4,803.3,634,790.7,649.5,790.7z"/>
<path d="M649.5,576.7L649.5,576.7c15.5,0,28.1,12.7,28.1,28.1v98.4c0,15.5-12.7,28.1-28.1,28.1l0,0c-15.5,0-28.1-12.7-28.1-28.1
	v-98.4C621.4,589.3,634,576.7,649.5,576.7z"/>
</svg>
