<?xml version="1.0" encoding="utf-8"?>
<!-- Generator: Adobe Illustrator 22.1.0, SVG Export Plug-In . SVG Version: 6.00 Build 0)  -->
<svg version="1.1" id="Layer_1" xmlns="http://www.w3.org/2000/svg" xmlns:xlink="http://www.w3.org/1999/xlink" x="0px" y="0px"
	 viewBox="0 0 3400 2000" style="enable-background:new 0 0 3400 2000;" xml:space="preserve">
<path d="M1133.5,1413H94.5c-52,0-94.5-42.5-94.5-94.5l0,0c0-52,42.5-94.5,94.5-94.5h1039c52,0,94.5,42.5,94.5,94.5v0
	C1228,1370.5,1185.5,1413,1133.5,1413z"/>
<path d="M1091.5,1238.9L1091.5,1238.9c-45,26-60.6,84.1-34.6,129.1l337.5,584.6c26,45,84.1,60.6,129.1,34.6l0,0
	c45-26,60.6-84.1,34.6-129.1l-337.5-584.6C1194.6,1228.5,1136.5,1212.9,1091.5,1238.9z"/>
<path d="M1489,2000L1489,2000c49.5,0,90-40.5,90-90V90c0-49.5-40.5-90-90-90h0c-49.5,0-90,40.5-90,90v1820
	C1399,1959.5,1439.5,2000,1489,2000z"/>
<path d="M1400,90L1400,90c0,49.5,40.5,90,90,90h1820c49.5,0,90-40.5,90-90v0c0-49.5-40.5-90-90-90L1490,0
	C1440.5,0,1400,40.5,1400,90z"/>
<path d="M3305.5,0L3305.5,0c-52,0-94.5,42.5-94.5,94.5v387c0,52,42.5,94.5,94.5,94.5l0,0c52,0,94.5-42.5,94.5-94.5v-387
	C3400,42.5,3357.5,0,3305.5,0z"/>
<path d="M1746,720L1746,720c-49.5,0-90-40.5-90-90V378c0-49.5,40.5-90,90-90h0c49.5,0,90,40.5,90,90v252
	C1836,679.5,1795.5,720,1746,720z"/>
<path d="M1746,1908L1746,1908c-49.5,0-90-40.5-90-90v-252c0-49.5,40.5-90,90-90h0c49.5,0,90,40.5,90,90v252
	C1836,1867.5,1795.5,1908,1746,1908z"/>
<path d="M1746,1296L1746,1296c-49.5,0-90-40.5-90-90V954c0-49.5,40.5-90,90-90h0c49.5,0,90,40.5,90,90v252
	C1836,1255.5,1795.5,1296,1746,1296z"/>
<path d="M4384,818L4384,818c-49.5,0-90-40.5-90-90V476c0-49.5,40.5-90,90-90l0,0c49.5,0,90,40.5,90,90v252
	C4474,777.5,4433.5,818,4384,818z"/>
<path d="M4384,2006L4384,2006c-49.5,0-90-40.5-90-90v-252c0-49.5,40.5-90,90-90l0,0c49.5,0,90,40.5,90,90v252
	C4474,1965.5,4433.5,2006,4384,2006z"/>
<path d="M4384,1394L4384,1394c-49.5,0-90-40.5-90-90v-252c0-49.5,40.5-90,90-90l0,0c49.5,0,90,40.5,90,90v252
	C4474,1353.5,4433.5,1394,4384,1394z"/>
<path d="M3042,720L3042,720c-49.5,0-90-40.5-90-90V378c0-49.5,40.5-90,90-90l0,0c49.5,0,90,40.5,90,90v252
	C3132,679.5,3091.5,720,3042,720z"/>
<path d="M3042,1908L3042,1908c-49.5,0-90-40.5-90-90v-252c0-49.5,40.5-90,90-90l0,0c49.5,0,90,40.5,90,90v252
	C3132,1867.5,3091.5,1908,3042,1908z"/>
<path d="M3042,1296L3042,1296c-49.5,0-90-40.5-90-90V954c0-49.5,40.5-90,90-90l0,0c49.5,0,90,40.5,90,90v252
	C3132,1255.5,3091.5,1296,3042,1296z"/>
<path d="M2002.5,459h-261c-47,0-85.5-38.5-85.5-85.5v0c0-47,38.5-85.5,85.5-85.5h261c47,0,85.5,38.5,85.5,85.5v0
	C2088,420.5,2049.5,459,2002.5,459z"/>
<path d="M3046.5,459h-261c-47,0-85.5-38.5-85.5-85.5v0c0-47,38.5-85.5,85.5-85.5h261c47,0,85.5,38.5,85.5,85.5v0
	C3132,420.5,3093.5,459,3046.5,459z"/>
<path d="M2524.5,459h-261c-47,0-85.5-38.5-85.5-85.5v0c0-47,38.5-85.5,85.5-85.5h261c47,0,85.5,38.5,85.5,85.5v0
	C2610,420.5,2571.5,459,2524.5,459z"/>
<path d="M2002.5,1908h-261c-47,0-85.5-38.5-85.5-85.5v0c0-47,38.5-85.5,85.5-85.5h261c47,0,85.5,38.5,85.5,85.5v0
	C2088,1869.5,2049.5,1908,2002.5,1908z"/>
<path d="M3046.5,1908h-261c-47,0-85.5-38.5-85.5-85.5v0c0-47,38.5-85.5,85.5-85.5h261c47,0,85.5,38.5,85.5,85.5v0
	C3132,1869.5,3093.5,1908,3046.5,1908z"/>
<path d="M2524.5,1908h-261c-47,0-85.5-38.5-85.5-85.5v0c0-47,38.5-85.5,85.5-85.5h261c47,0,85.5,38.5,85.5,85.5v0
	C2610,1869.5,2571.5,1908,2524.5,1908z"/>
<path d="M252,531L252,531c-19.8,0-36-16.2-36-36V324c0-19.8,16.2-36,36-36h0c19.8,0,36,16.2,36,36v171C288,514.8,271.8,531,252,531z
	"/>
<path d="M252,1152L252,1152c-19.8,0-36-16.2-36-36V945c0-19.8,16.2-36,36-36h0c19.8,0,36,16.2,36,36v171
	C288,1135.8,271.8,1152,252,1152z"/>
<path d="M252,819L252,819c-19.8,0-36-16.2-36-36V657c0-19.8,16.2-36,36-36h0c19.8,0,36,16.2,36,36v126C288,802.8,271.8,819,252,819z
	"/>
<path d="M1044,531L1044,531c-19.8,0-36-16.2-36-36V324c0-19.8,16.2-36,36-36l0,0c19.8,0,36,16.2,36,36v171
	C1080,514.8,1063.8,531,1044,531z"/>
<path d="M1044,1152L1044,1152c-19.8,0-36-16.2-36-36V945c0-19.8,16.2-36,36-36l0,0c19.8,0,36,16.2,36,36v171
	C1080,1135.8,1063.8,1152,1044,1152z"/>
<path d="M1044,819L1044,819c-19.8,0-36-16.2-36-36V657c0-19.8,16.2-36,36-36l0,0c19.8,0,36,16.2,36,36v126
	C1080,802.8,1063.8,819,1044,819z"/>
<path d="M837,1116L837,1116c0-19.8,16.2-36,36-36h171c19.8,0,36,16.2,36,36l0,0c0,19.8-16.2,36-36,36H873
	C853.2,1152,837,1135.8,837,1116z"/>
<path d="M216,1116L216,1116c0-19.8,16.2-36,36-36h171c19.8,0,36,16.2,36,36l0,0c0,19.8-16.2,36-36,36H252
	C232.2,1152,216,1135.8,216,1116z"/>
<path d="M549,1116L549,1116c0-19.8,16.2-36,36-36h126c19.8,0,36,16.2,36,36l0,0c0,19.8-16.2,36-36,36H585
	C565.2,1152,549,1135.8,549,1116z"/>
<path d="M837,324L837,324c0-19.8,16.2-36,36-36h171c19.8,0,36,16.2,36,36v0c0,19.8-16.2,36-36,36H873C853.2,360,837,343.8,837,324z"
	/>
<path d="M216,324L216,324c0-19.8,16.2-36,36-36h171c19.8,0,36,16.2,36,36v0c0,19.8-16.2,36-36,36H252C232.2,360,216,343.8,216,324z"
	/>
<path d="M549,324L549,324c0-19.8,16.2-36,36-36h126c19.8,0,36,16.2,36,36v0c0,19.8-16.2,36-36,36H585C565.2,360,549,343.8,549,324z"
	/>
</svg>
