<?xml version="1.0" encoding="utf-8"?>
<!-- Generator: Adobe Illustrator 21.0.0, SVG Export Plug-In . SVG Version: 6.00 Build 0)  -->
<svg version="1.1" id="Layer_1" xmlns="http://www.w3.org/2000/svg" xmlns:xlink="http://www.w3.org/1999/xlink" x="0px" y="0px"
	 viewBox="0 0 1000 1000" style="enable-background:new 0 0 1000 1000;" xml:space="preserve">
<path d="M951.5,982.8L809.2,526.2c-4.1-13.2,3.2-27.2,16.4-31.3l0,0c13.2-4.1,27.2,3.2,31.3,16.4L999.2,968
	c4.1,13.2-3.2,27.2-16.4,31.3l0,0C969.6,1003.4,955.6,996,951.5,982.8z"/>
<path d="M950,975V25c0-13.8,11.2-25,25-25l0,0c13.8,0,25,11.2,25,25v950c0,13.8-11.2,25-25,25l0,0C961.2,1000,950,988.8,950,975z"/>
<path d="M975,0h119c13.8,0,25,11.2,25,25l0,0c0,13.8-11.2,25-25,25H975c-13.8,0-25-11.2-25-25l0,0C950,11.2,961.2,0,975,0z"/>
</svg>
