<svg id="Layer_1" data-name="Layer 1" xmlns="http://www.w3.org/2000/svg" viewBox="0 0 290.17 563.83"><title>1one</title><path d="M657.23,693.64a70.13,70.13,0,0,1-1.16,13.85,32.19,32.19,0,0,1-3.08,9.09,13,13,0,0,1-4.43,5,9.89,9.89,0,0,1-5.2,1.51H382.85a8.92,8.92,0,0,1-5-1.51,15.34,15.34,0,0,1-4.43-5,28.35,28.35,0,0,1-3.28-9.09A70.13,70.13,0,0,1,369,693.64a67.57,67.57,0,0,1,1.16-13.41,42,42,0,0,1,2.89-9.3,15.11,15.11,0,0,1,4.24-5.63,8.87,8.87,0,0,1,5.59-1.95h104V237.56L390.56,302q-7.32,4.33-11.75,5.19t-7.13-1.95Q369,302.47,368,296a139,139,0,0,1-.39-29,42.79,42.79,0,0,1,1.73-8.65,19,19,0,0,1,3.28-6.06,31.54,31.54,0,0,1,5.59-5.19l114.84-82.65a13,13,0,0,1,3.85-2.16,56,56,0,0,1,5.78-1.73,42.32,42.32,0,0,1,8.09-1.08q4.62-.21,11.56-.22a114.43,114.43,0,0,1,15.41.87,38.47,38.47,0,0,1,9.63,2.38,8.73,8.73,0,0,1,4.63,3.89,11.26,11.26,0,0,1,1.16,5v492h90.17a9.7,9.7,0,0,1,5.78,1.95,14.28,14.28,0,0,1,4.43,5.63,36.6,36.6,0,0,1,2.7,9.3A81.1,81.1,0,0,1,657.23,693.64Z" transform="translate(-367.05 -159.24)"/></svg>