<?xml version="1.0" encoding="utf-8"?>
<!-- Generator: Adobe Illustrator 21.0.0, SVG Export Plug-In . SVG Version: 6.00 Build 0)  -->
<svg version="1.1" id="Layer_1" xmlns="http://www.w3.org/2000/svg" xmlns:xlink="http://www.w3.org/1999/xlink" x="0px" y="0px"
	 viewBox="0 0 1000 1000" style="enable-background:new 0 0 1000 1000;" xml:space="preserve">
<path d="M1000,25v105c0,13.8-11.2,25-25,25l0,0c-13.8,0-25-11.2-25-25V25c0-13.8,11.2-25,25-25l0,0C988.8,0,1000,11.2,1000,25z"/>
<path d="M975,51H-3c-13.8,0-25-11.2-25-25v0C-28,12.2-16.8,1-3,1h978c13.8,0,25,11.2,25,25v0C1000,39.8,988.8,51,975,51z"/>
</svg>
