<svg id="Layer_1" data-name="Layer 1" xmlns="http://www.w3.org/2000/svg" viewBox="0 0 312.14 568.15"><title>2two</title><path d="M656.07,691a89.46,89.46,0,0,1-1,13.85,44.36,44.36,0,0,1-2.7,10.17,13.21,13.21,0,0,1-4.62,6.06,11.14,11.14,0,0,1-6.36,1.95H365.9a26.75,26.75,0,0,1-9.44-1.51,16.38,16.38,0,0,1-6.94-5q-2.89-3.46-4.24-10a80,80,0,0,1-1.35-16q0-8.65.6-15.15A41,41,0,0,1,347.1,664a70.05,70.05,0,0,1,5-10,81.41,81.41,0,0,1,7.74-10.6l99.67-115.1q34.55-39.81,55.39-71.4T547,399.39q11.32-26,14.89-47.17a239.89,239.89,0,0,0,3.58-39.81,110.64,110.64,0,0,0-5.57-35.27,88.64,88.64,0,0,0-16.1-29.21A75.25,75.25,0,0,0,517.4,228q-15.91-7.35-36.58-7.36-24.26,0-43.54,7.36a217.8,217.8,0,0,0-33.8,16,272.61,272.61,0,0,0-24.25,16q-9.74,7.36-14.51,7.36a7.79,7.79,0,0,1-5-1.73,12.21,12.21,0,0,1-3.58-5.62A49.86,49.86,0,0,1,354,249.68a130.61,130.61,0,0,1-.79-15.58q0-6.49.39-11.25a44,44,0,0,1,1.35-8.22,34.65,34.65,0,0,1,2.5-6.49,32.57,32.57,0,0,1,6.17-7.57q4.62-4.54,16-12.33a178.19,178.19,0,0,1,28.52-15.36,236.6,236.6,0,0,1,37.77-12.77,176.86,176.86,0,0,1,43.35-5.19q36.22,0,63.39,11.47t45.09,31.37a130.48,130.48,0,0,1,26.78,46.3,175.62,175.62,0,0,1,8.86,56.25,339.48,339.48,0,0,1-4.24,53.44q-4.25,26.61-17.92,57.55t-39.5,68.8Q545.85,518,503.08,567.29l-79,92.6H641a10.55,10.55,0,0,1,6,1.95,16.17,16.17,0,0,1,5,5.84,31.09,31.09,0,0,1,3.08,9.74A85.28,85.28,0,0,1,656.07,691Z" transform="translate(-343.93 -154.91)"/></svg>