<?xml version="1.0" encoding="utf-8"?>
<!-- Generator: Adobe Illustrator 22.1.0, SVG Export Plug-In . SVG Version: 6.00 Build 0)  -->
<svg version="1.1" id="Layer_1" xmlns="http://www.w3.org/2000/svg" xmlns:xlink="http://www.w3.org/1999/xlink" x="0px" y="0px"
	 viewBox="0 0 2000 2000" style="enable-background:new 0 0 2000 2000;" xml:space="preserve">
<style type="text/css">
	.st0{font-family:'BerlinSansFB-Reg';}
	.st1{font-size:804.8691px;}
</style>
<path d="M1163,529.9l-695,949.9c-14.3,19.6-41.9,23.9-61.5,9.5h0c-19.6-14.3-23.9-41.9-9.5-61.5l695-949.9
	c14.3-19.6,41.9-23.9,61.5-9.5v0C1173.1,482.7,1177.3,510.2,1163,529.9z"/>
<text transform="matrix(1.1205 0 0 1 31.0005 1861.7832)" class="st0 st1">0</text>
<text transform="matrix(1.1205 0 0 1 957.0005 567.7832)" class="st0 st1">0</text>
<text transform="matrix(1.1205 0 0 1 1326.0005 1623.7832)" class="st0 st1">0</text>
<path d="M1476.9,1211.3L1254.7,557c-7.8-23,4.5-48,27.5-55.8l0,0c23-7.8,48,4.5,55.8,27.5l222.2,654.3c7.8,23-4.5,48-27.5,55.8h0
	C1509.7,1246.6,1484.7,1234.3,1476.9,1211.3z"/>
</svg>
