<svg id="Layer_1" data-name="Layer 1" xmlns="http://www.w3.org/2000/svg" viewBox="0 0 311.37 576.37"><title>3three</title><path d="M642.58,566.42q0,35.05-11,64.91a145.69,145.69,0,0,1-32.76,52.14q-21.77,22.29-54.72,35t-76.49,12.77A237.52,237.52,0,0,1,421,727a234,234,0,0,1-38.34-10.82,162.52,162.52,0,0,1-27.75-13.41q-11-6.92-14.26-10a23.55,23.55,0,0,1-4.82-5.84,27,27,0,0,1-2.5-7.14A85.65,85.65,0,0,1,331.79,669q-.58-6.49-.58-16,0-15.14,2.5-21t7.9-5.84q4.24,0,14.26,6.71t25.43,14.93a228.84,228.84,0,0,0,36.61,15.14q21.19,6.93,48.17,6.92,25.43,0,44.51-7.36a89,89,0,0,0,32.18-20.77,86.11,86.11,0,0,0,19.65-32A121.74,121.74,0,0,0,569,569q0-23.37-8.48-42.41A91.25,91.25,0,0,0,536,493.94q-16-13.63-39.31-21t-52.6-7.36H397.5a12.65,12.65,0,0,1-6-1.51,13.07,13.07,0,0,1-5-5A31.47,31.47,0,0,1,383,450a64.89,64.89,0,0,1-1.35-14.71,66.92,66.92,0,0,1,1.16-13.63,25.68,25.68,0,0,1,3.28-8.65,14.15,14.15,0,0,1,4.82-4.76,12.39,12.39,0,0,1,6.17-1.51h42.77q25.43,0,45.67-7.36a92,92,0,0,0,55.88-54.09q7.51-19,7.51-42.84a110.43,110.43,0,0,0-5-33.54,76.31,76.31,0,0,0-15.22-27.48,71.26,71.26,0,0,0-25.63-18.39q-15.42-6.7-35.84-6.71-22.74,0-41.43,7.36a203.78,203.78,0,0,0-32.95,16.23q-14.26,8.87-24.08,16t-14.84,7.14a5.77,5.77,0,0,1-3.85-1.3,10.48,10.48,0,0,1-2.7-4.54,39.4,39.4,0,0,1-1.73-8.87q-.58-5.62-.58-14.28,0-5.62.39-10.6a75,75,0,0,1,1.16-8.87,30.1,30.1,0,0,1,2.31-7.14,29,29,0,0,1,5.2-7.14q3.66-3.89,13.87-11t27-14.93a242,242,0,0,1,38.15-13.63,175.74,175.74,0,0,1,46.44-5.84q35.06,0,61.46,10.17t43.74,28.34a117.27,117.27,0,0,1,26,43.27q8.67,25.1,8.67,55.82a187.12,187.12,0,0,1-6.17,49.11,132.52,132.52,0,0,1-18.11,40.24,116.46,116.46,0,0,1-29.48,29.86,107.39,107.39,0,0,1-39.88,17.09v.87a123.28,123.28,0,0,1,45.47,13,124.74,124.74,0,0,1,37.19,29,136.4,136.4,0,0,1,25,42Q642.58,537.43,642.58,566.42Z" transform="translate(-331.21 -154.91)"/></svg>