<svg id="Layer_1" data-name="Layer 1" xmlns="http://www.w3.org/2000/svg" viewBox="0 0 358.77 565.12"><title>4four</title><path d="M677.26,563.83q0,14.28-3.85,22.5t-10.79,8.22H606.36v117.7a10.26,10.26,0,0,1-1.59,5.84,12.37,12.37,0,0,1-5.56,4.11,40.05,40.05,0,0,1-10.32,2.6,124.91,124.91,0,0,1-16.27.87,121.13,121.13,0,0,1-15.88-.87,37,37,0,0,1-10.12-2.6,11,11,0,0,1-5.16-4.11,11.38,11.38,0,0,1-1.38-5.84V594.55h-204a19.63,19.63,0,0,1-7.65-1.3,13.42,13.42,0,0,1-5.54-4.76q-2.48-3.46-3.44-10a120.17,120.17,0,0,1-1-16.88q0-8.21.38-14.71a80.09,80.09,0,0,1,1.53-11.9,68.52,68.52,0,0,1,3-10.39q1.91-5,4.58-10.6L505.78,174a18.53,18.53,0,0,1,5.7-6.06,33.27,33.27,0,0,1,9.63-4.33,71.66,71.66,0,0,1,14.54-2.38q8.64-.65,20.43-.65a206.46,206.46,0,0,1,22.59,1.08,94.94,94.94,0,0,1,15.52,2.81,23.37,23.37,0,0,1,9,4.54,8.71,8.71,0,0,1,3.14,6.71V533.1h56.26q6.55,0,10.6,7.57T677.26,563.83ZM540.08,225.88h-.76L379,533.1H540.08Z" transform="translate(-318.5 -160.54)"/></svg>