<svg id="Layer_1" data-name="Layer 1" xmlns="http://www.w3.org/2000/svg" viewBox="0 0 314.84 568.15"><title>5five</title><path d="M653.76,543.05q0,45-13.49,80.05t-38.15,59.07a164.46,164.46,0,0,1-58.77,36.56q-34.1,12.54-75.72,12.55a252.68,252.68,0,0,1-43.93-3.68,259.91,259.91,0,0,1-37-9.09,209.3,209.3,0,0,1-26.59-10.6q-10.4-5.19-13.29-8.22a20.66,20.66,0,0,1-4-5.63,40.77,40.77,0,0,1-2.12-6.27,50.85,50.85,0,0,1-1.35-9.3q-.39-5.62-.39-13.41,0-7.35.58-13.2a33.51,33.51,0,0,1,2.12-9.52,13.64,13.64,0,0,1,3.66-5.41,7.42,7.42,0,0,1,4.82-1.73q3.85,0,11.95,5.41a159.6,159.6,0,0,0,21.77,11.68,230,230,0,0,0,33.91,11.9q20.23,5.63,48,5.63,25.81,0,47.4-6.92a96.18,96.18,0,0,0,37.19-21.64q15.61-14.71,24.47-37T583.62,550q0-26.83-7.51-47.38A81.8,81.8,0,0,0,553,468.41q-15.61-13.63-39.5-20.34t-57-6.71A271.69,271.69,0,0,0,416,444a209.6,209.6,0,0,1-31.6,2.6q-10.79,0-15.41-5.62t-4.62-21.64v-228q0-14.28,6-21.2t17.15-6.92H608.29a10.56,10.56,0,0,1,6,1.95,14.69,14.69,0,0,1,4.82,5.84,35.2,35.2,0,0,1,2.89,10,92.7,92.7,0,0,1,1,14.28q0,15.58-3.69,24.23T608.91,228H430.64V385.11a201.07,201.07,0,0,1,26.54-2.6q13.55-.43,31.38-.43,41.2,0,72,11.47T612,426q20.6,21,31.18,50.84T653.76,543.05Z" transform="translate(-338.92 -163.13)"/></svg>