<?xml version="1.0" encoding="utf-8"?>
<!-- Generator: Adobe Illustrator 22.1.0, SVG Export Plug-In . SVG Version: 6.00 Build 0)  -->
<svg version="1.1" id="Layer_1" xmlns="http://www.w3.org/2000/svg" xmlns:xlink="http://www.w3.org/1999/xlink" x="0px" y="0px"
	 viewBox="0 0 2000 2000" style="enable-background:new 0 0 2000 2000;" xml:space="preserve">
<style type="text/css">
	.st0{font-family:'BerlinSansFB-Reg';}
	.st1{font-size:804.8691px;}
</style>
<text transform="matrix(1.1205 0 0 1 -9.9995 1773.7832)" class="st0 st1">0</text>
<text transform="matrix(1.1205 0 0 1 -9.9995 702.7832)" class="st0 st1">0</text>
<text transform="matrix(1.1205 0 0 1 1476.0005 701.7832)" class="st0 st1">0</text>
<text transform="matrix(1.1205 0 0 1 1476.0005 1781.7832)" class="st0 st1">0</text>
<path d="M1558,511H449c-24.3,0-44-19.7-44-44v0c0-24.3,19.7-44,44-44h1109c24.3,0,44,19.7,44,44v0C1602,491.3,1582.3,511,1558,511z"
	/>
<path d="M1558,1591H449c-24.3,0-44-19.7-44-44v0c0-24.3,19.7-44,44-44h1109c24.3,0,44,19.7,44,44v0
	C1602,1571.3,1582.3,1591,1558,1591z"/>
<path d="M1703,1319V701c0-24.3,19.7-44,44-44h0c24.3,0,44,19.7,44,44v618c0,24.3-19.7,44-44,44h0C1722.7,1363,1703,1343.3,1703,1319
	z"/>
<path d="M218,1310V692c0-24.3,19.7-44,44-44h0c24.3,0,44,19.7,44,44v618c0,24.3-19.7,44-44,44h0C237.7,1354,218,1334.3,218,1310z"/>
</svg>
