<svg id="Layer_1" data-name="Layer 1" xmlns="http://www.w3.org/2000/svg" viewBox="0 0 327.55 575.94"><title>6six</title><path d="M668.79,541.76a253.31,253.31,0,0,1-10,71.18q-10,34.4-30.83,60.58t-52.79,42q-32,15.79-75.53,15.79-31.21,0-55.11-8.65A124.55,124.55,0,0,1,402.89,698a132.59,132.59,0,0,1-29.48-39.38q-11.76-23.37-18.88-53.22A448.46,448.46,0,0,1,344.32,540q-3.09-35.48-3.08-76.16,0-35.91,3.47-72.7a450.78,450.78,0,0,1,12.33-71,319,319,0,0,1,24.08-64.26,195.35,195.35,0,0,1,38.15-52.36q22.92-22.28,54.91-35.27t74.37-13a229.77,229.77,0,0,1,55.88,7.14,129.45,129.45,0,0,1,20.81,7.14q8.47,3.89,11.17,6.27a16.6,16.6,0,0,1,4,5.19,30.49,30.49,0,0,1,2.12,6.06,54.41,54.41,0,0,1,1.16,7.36q.38,4.12.38,10.17,0,7.79-.19,13.41a28.34,28.34,0,0,1-1.54,9.09,12.31,12.31,0,0,1-3.47,5.19,8.55,8.55,0,0,1-5.59,1.73q-4.25,0-11.56-3T604,224.36a193.4,193.4,0,0,0-25.24-6.71,174.31,174.31,0,0,0-34.49-3q-35.84,0-61.66,16.44a129.54,129.54,0,0,0-42.2,44.14q-16.38,27.7-24.28,64.26a418.48,418.48,0,0,0-9.06,76.37q10-6.49,22.54-13A210.33,210.33,0,0,1,457,391.17a227,227,0,0,1,31.41-8.44,184.36,184.36,0,0,1,35.45-3.25q40.46,0,68.21,12.33T637,426q17.14,21.86,24.47,51.49A267.77,267.77,0,0,1,668.79,541.76Zm-67.05,6.92A217.37,217.37,0,0,0,597.3,503q-4.44-20.55-14.84-34.83a68,68,0,0,0-27.75-22.07q-17.34-7.79-42.77-7.79a147.17,147.17,0,0,0-28.52,2.81,176.06,176.06,0,0,0-27.55,7.79,191.32,191.32,0,0,0-25.43,11.68,170.2,170.2,0,0,0-22.16,14.5q0,55.82,6.36,93.47t18.5,60.36q12.14,22.72,30.25,32.45t42.39,9.74q24.66,0,42.77-10.38a90.45,90.45,0,0,0,30.06-27.91,123.78,123.78,0,0,0,17.53-39.38A180.22,180.22,0,0,0,601.73,548.68Z" transform="translate(-341.23 -155.34)"/></svg>