<svg id="Layer_1" data-name="Layer 1" xmlns="http://www.w3.org/2000/svg" viewBox="0 0 336.03 576.37"><title>8eight</title><path d="M667.63,579.4q0,36.35-11.56,64.69a128,128,0,0,1-33.33,47.81Q601,711.38,569,721.33t-73.22,10q-38.54,0-69-9.09t-51.64-26.83a115.8,115.8,0,0,1-32.37-43.7q-11.18-26-11.18-59.28,0-26.39,7.71-48.46a142.5,142.5,0,0,1,22.16-40.67,194.28,194.28,0,0,1,35.65-34.83,385.52,385.52,0,0,1,47.78-30.94A285.65,285.65,0,0,1,404,409.13,171.49,171.49,0,0,1,374,376.68a137.25,137.25,0,0,1-18.69-37.43A141.48,141.48,0,0,1,348.94,296a158.93,158.93,0,0,1,9.44-55.17A121.69,121.69,0,0,1,386.9,196q19.08-19,48.55-30.07t68.79-11q37.76,0,65.32,10.17T615,192.77a107.56,107.56,0,0,1,26.4,41.32,151.17,151.17,0,0,1,8.48,51.06,141.25,141.25,0,0,1-6.36,42.41,145.77,145.77,0,0,1-18.69,38.51,180.45,180.45,0,0,1-30.25,34,276.94,276.94,0,0,1-41,29.64,425.41,425.41,0,0,1,48.75,31.16,190,190,0,0,1,35.84,34.4,141.65,141.65,0,0,1,22,38.94Q667.63,554.74,667.63,579.4Zm-67.05,7.79A95.77,95.77,0,0,0,594,551.06a96.94,96.94,0,0,0-19.85-30.29Q560.89,506.71,541,493.51T495,466a397.8,397.8,0,0,0-42.58,26.83q-18.31,13.42-30.06,27.69a106.55,106.55,0,0,0-17.73,30.07,97.69,97.69,0,0,0-6,34.83q0,42,25.63,64.91t76.49,22.93q49.32,0,74.57-23.15T600.58,587.19ZM584.39,292.08a92.12,92.12,0,0,0-5.59-32.89,67.75,67.75,0,0,0-16.38-25.1,70.66,70.66,0,0,0-26.78-15.79q-16-5.41-36.42-5.41-41.62,0-63,21.2t-21.39,58a92.2,92.2,0,0,0,5.2,31.37,89.05,89.05,0,0,0,16.19,27.48A161.33,161.33,0,0,0,464,376.24,441.36,441.36,0,0,0,503.85,402q38.92-22.49,59.73-49.76T584.39,292.08Z" transform="translate(-331.6 -154.91)"/></svg>