<svg id="Layer_1" data-name="Layer 1" xmlns="http://www.w3.org/2000/svg" viewBox="0 0 328.32 576.37"><title>9nine</title><path d="M659.92,421a714.81,714.81,0,0,1-3.85,73.56A456.67,456.67,0,0,1,643,566.21a319.54,319.54,0,0,1-24.86,64.47,196.8,196.8,0,0,1-39.31,52.57q-23.7,22.5-56.26,35.27t-75.72,12.77a213.79,213.79,0,0,1-32.18-2.38,245.17,245.17,0,0,1-28.13-5.84,140.53,140.53,0,0,1-21-7.36q-8.48-3.89-12.33-7.79a22.81,22.81,0,0,1-5.59-10.6q-1.73-6.7-1.73-18,0-9.51.58-15.14a35.7,35.7,0,0,1,1.73-8.65,7.24,7.24,0,0,1,3.28-4.11,11.39,11.39,0,0,1,5.2-1.08q4.24,0,11.95,3.25t19.46,7.14a245.55,245.55,0,0,0,27.55,7.14,176.9,176.9,0,0,0,35.45,3.25q37.37,0,64.16-16.23A130.83,130.83,0,0,0,559,611.42q17-27.26,25.43-63.18a359.55,359.55,0,0,0,9.25-75.72q-20.43,13.42-48.94,23.8t-65.51,10.39q-41.62,0-69.94-12.77t-45.47-34.83Q346.63,437,339.11,406.75t-7.51-66.21a255,255,0,0,1,9.63-70.75q9.63-33.53,30.06-59.06t52-40.68q31.59-15.14,75.53-15.15,31.21,0,55.3,8.87A121.85,121.85,0,0,1,596,189.31,150.22,150.22,0,0,1,626,229.55,243.23,243.23,0,0,1,645.86,283a430.65,430.65,0,0,1,10.79,64.69Q659.92,382.52,659.92,421Zm-67.44-8.22q0-55.38-6.55-93.25t-19.27-61.23Q553.95,235,535.45,224.58t-42.77-10.39q-25.05,0-42.77,10.17a85.72,85.72,0,0,0-29.09,27.26A123,123,0,0,0,404,290.35a183.36,183.36,0,0,0-5.4,44.57,210.81,210.81,0,0,0,4.82,46.73q4.81,21.21,15.61,35.92a71.13,71.13,0,0,0,28.13,22.72q17.34,8,42.77,8a163.35,163.35,0,0,0,55.88-9.74Q572.83,428.82,592.49,412.81Z" transform="translate(-331.6 -154.91)"/></svg>