<?xml version="1.0" encoding="utf-8"?>
<!-- Generator: Adobe Illustrator 22.1.0, SVG Export Plug-In . SVG Version: 6.00 Build 0)  -->
<svg version="1.1" id="Layer_1" xmlns="http://www.w3.org/2000/svg" xmlns:xlink="http://www.w3.org/1999/xlink" x="0px" y="0px"
	 viewBox="0 0 2000 2000" style="enable-background:new 0 0 2000 2000;" xml:space="preserve">
<style type="text/css">
	.st0{fill:#767676;}
	.st1{fill:#ED7E28;}
</style>
<g>
	<path d="M1000,60c63.8,0,127.6,6.4,189.5,19.1c60.3,12.3,119.7,30.8,176.4,54.7c55.7,23.6,109.4,52.7,159.6,86.7
		c49.8,33.6,96.6,72.3,139.2,114.8c42.6,42.6,81.2,89.4,114.8,139.2c33.9,50.2,63.1,104,86.7,159.6c24,56.7,42.4,116,54.7,176.4
		c12.7,61.9,19.1,125.7,19.1,189.5s-6.4,127.6-19.1,189.5c-12.3,60.3-30.8,119.7-54.7,176.4c-23.6,55.7-52.7,109.4-86.7,159.6
		c-33.6,49.8-72.3,96.6-114.8,139.2c-42.6,42.6-89.4,81.2-139.2,114.8c-50.2,33.9-104,63.1-159.6,86.7c-56.7,24-116,42.4-176.4,54.7
		c-61.9,12.7-125.7,19.1-189.5,19.1s-127.6-6.4-189.5-19.1c-60.3-12.3-119.7-30.8-176.4-54.7c-55.7-23.6-109.4-52.7-159.6-86.7
		c-49.8-33.6-96.6-72.3-139.2-114.8c-42.6-42.6-81.2-89.4-114.8-139.2c-33.9-50.2-63.1-104-86.7-159.6c-24-56.7-42.4-116-54.7-176.4
		C66.4,1127.6,60,1063.8,60,1000s6.4-127.6,19.1-189.5c12.3-60.3,30.8-119.7,54.7-176.4c23.6-55.7,52.7-109.4,86.7-159.6
		c33.6-49.8,72.3-96.6,114.8-139.2c42.6-42.6,89.4-81.2,139.2-114.8c50.2-33.9,104-63.1,159.6-86.7c56.7-24,116-42.4,176.4-54.7
		C872.4,66.4,936.2,60,1000,60 M1000,0C447.7,0,0,447.7,0,1000s447.7,1000,1000,1000s1000-447.7,1000-1000S1552.3,0,1000,0L1000,0z"
		/>
</g>
<g>
	<circle class="st0" cx="1003.5" cy="1022.5" r="200.5"/>
	<path d="M1003.5,842c48.2,0,93.5,18.8,127.6,52.9c34.1,34.1,52.9,79.4,52.9,127.6s-18.8,93.5-52.9,127.6
		c-34.1,34.1-79.4,52.9-127.6,52.9s-93.5-18.8-127.6-52.9c-34.1-34.1-52.9-79.4-52.9-127.6s18.8-93.5,52.9-127.6
		C910,860.8,955.3,842,1003.5,842 M1003.5,802C881.7,802,783,900.7,783,1022.5s98.7,220.5,220.5,220.5s220.5-98.7,220.5-220.5
		S1125.3,802,1003.5,802L1003.5,802z"/>
</g>
<g>
	<circle class="st1" cx="1660.5" cy="310.5" r="200.5"/>
	<path d="M1660.5,130c48.2,0,93.5,18.8,127.6,52.9c34.1,34.1,52.9,79.4,52.9,127.6s-18.8,93.5-52.9,127.6
		c-34.1,34.1-79.4,52.9-127.6,52.9s-93.5-18.8-127.6-52.9c-34.1-34.1-52.9-79.4-52.9-127.6s18.8-93.5,52.9-127.6
		C1567,148.8,1612.3,130,1660.5,130 M1660.5,90c-121.8,0-220.5,98.7-220.5,220.5S1538.7,531,1660.5,531S1881,432.3,1881,310.5
		S1782.3,90,1660.5,90L1660.5,90z"/>
</g>
</svg>
