<?xml version="1.0" encoding="utf-8"?>
<!-- Generator: Adobe Illustrator 22.1.0, SVG Export Plug-In . SVG Version: 6.00 Build 0)  -->
<svg version="1.1" id="Layer_1" xmlns="http://www.w3.org/2000/svg" xmlns:xlink="http://www.w3.org/1999/xlink" x="0px" y="0px"
	 viewBox="0 0 2000 2000" style="enable-background:new 0 0 2000 2000;" xml:space="preserve">
<style type="text/css">
	.st0{fill:#757575;}
</style>
<g>
	<circle class="st0" cx="994.5" cy="1021.5" r="200.5"/>
	<path d="M994.5,841c48.2,0,93.5,18.8,127.6,52.9c34.1,34.1,52.9,79.4,52.9,127.6s-18.8,93.5-52.9,127.6
		c-34.1,34.1-79.4,52.9-127.6,52.9s-93.5-18.8-127.6-52.9c-34.1-34.1-52.9-79.4-52.9-127.6s18.8-93.5,52.9-127.6
		C901,859.8,946.3,841,994.5,841 M994.5,801C872.7,801,774,899.7,774,1021.5S872.7,1242,994.5,1242s220.5-98.7,220.5-220.5
		S1116.3,801,994.5,801L994.5,801z"/>
</g>
</svg>
