<?xml version="1.0" encoding="utf-8"?>
<!-- Generator: Adobe Illustrator 22.1.0, SVG Export Plug-In . SVG Version: 6.00 Build 0)  -->
<svg version="1.1" id="Layer_1" xmlns="http://www.w3.org/2000/svg" xmlns:xlink="http://www.w3.org/1999/xlink" x="0px" y="0px"
	 viewBox="0 0 2000 2000" style="enable-background:new 0 0 2000 2000;" xml:space="preserve">
<style type="text/css">
	.st0{fill:#757575;}
	.st1{fill:none;stroke:#000000;stroke-width:80;stroke-miterlimit:10;}
</style>
<g>
	<circle class="st0" cx="220.5" cy="1006.5" r="200.5"/>
	<path d="M220.5,826c48.2,0,93.5,18.8,127.6,52.9c34.1,34.1,52.9,79.4,52.9,127.6s-18.8,93.5-52.9,127.6
		c-34.1,34.1-79.4,52.9-127.6,52.9s-93.5-18.8-127.6-52.9C58.8,1100,40,1054.7,40,1006.5S58.8,913,92.9,878.9
		C127,844.8,172.3,826,220.5,826 M220.5,786C98.7,786,0,884.7,0,1006.5S98.7,1227,220.5,1227S441,1128.3,441,1006.5
		S342.3,786,220.5,786L220.5,786z"/>
</g>
<g>
	<circle class="st0" cx="1779.5" cy="1019.5" r="200.5"/>
	<path d="M1779.5,839c48.2,0,93.5,18.8,127.6,52.9c34.1,34.1,52.9,79.4,52.9,127.6s-18.8,93.5-52.9,127.6
		c-34.1,34.1-79.4,52.9-127.6,52.9s-93.5-18.8-127.6-52.9c-34.1-34.1-52.9-79.4-52.9-127.6s18.8-93.5,52.9-127.6
		C1686,857.8,1731.3,839,1779.5,839 M1779.5,799c-121.8,0-220.5,98.7-220.5,220.5s98.7,220.5,220.5,220.5s220.5-98.7,220.5-220.5
		S1901.3,799,1779.5,799L1779.5,799z"/>
</g>
<g>
	<line class="st1" x1="432" y1="1008" x2="1584" y2="1008"/>
</g>
</svg>
