<?xml version="1.0" encoding="utf-8"?>
<!-- Generator: Adobe Illustrator 22.1.0, SVG Export Plug-In . SVG Version: 6.00 Build 0)  -->
<svg version="1.1" id="Layer_1" xmlns="http://www.w3.org/2000/svg" xmlns:xlink="http://www.w3.org/1999/xlink" x="0px" y="0px"
	 viewBox="0 0 2000 2000" style="enable-background:new 0 0 2000 2000;" xml:space="preserve">
<style type="text/css">
	.st0{fill:#757575;}
	.st1{fill:none;stroke:#000000;stroke-width:80;stroke-miterlimit:10;}
</style>
<g>
	<circle class="st0" cx="220.5" cy="1779.5" r="200.5"/>
	<path d="M220.5,1599c48.2,0,93.5,18.8,127.6,52.9s52.9,79.4,52.9,127.6s-18.8,93.5-52.9,127.6c-34.1,34.1-79.4,52.9-127.6,52.9
		s-93.5-18.8-127.6-52.9C58.8,1873,40,1827.7,40,1779.5s18.8-93.5,52.9-127.6S172.3,1599,220.5,1599 M220.5,1559
		C98.7,1559,0,1657.7,0,1779.5S98.7,2000,220.5,2000S441,1901.3,441,1779.5S342.3,1559,220.5,1559L220.5,1559z"/>
</g>
<g>
	<circle class="st0" cx="956.5" cy="220.5" r="200.5"/>
	<path d="M956.5,40c48.2,0,93.5,18.8,127.6,52.9c34.1,34.1,52.9,79.4,52.9,127.6s-18.8,93.5-52.9,127.6
		c-34.1,34.1-79.4,52.9-127.6,52.9s-93.5-18.8-127.6-52.9C794.8,314,776,268.7,776,220.5s18.8-93.5,52.9-127.6
		C863,58.8,908.3,40,956.5,40 M956.5,0C834.7,0,736,98.7,736,220.5S834.7,441,956.5,441S1177,342.3,1177,220.5S1078.3,0,956.5,0
		L956.5,0z"/>
</g>
<g>
	<circle class="st0" cx="1779.5" cy="1163.5" r="200.5"/>
	<path d="M1779.5,983c48.2,0,93.5,18.8,127.6,52.9c34.1,34.1,52.9,79.4,52.9,127.6s-18.8,93.5-52.9,127.6
		c-34.1,34.1-79.4,52.9-127.6,52.9s-93.5-18.8-127.6-52.9c-34.1-34.1-52.9-79.4-52.9-127.6s18.8-93.5,52.9-127.6
		C1686,1001.8,1731.3,983,1779.5,983 M1779.5,943c-121.8,0-220.5,98.7-220.5,220.5s98.7,220.5,220.5,220.5s220.5-98.7,220.5-220.5
		S1901.3,943,1779.5,943L1779.5,943z"/>
</g>
<g>
	<line class="st1" x1="864" y1="405" x2="306" y2="1602"/>
</g>
<line class="st1" x1="1089" y1="369" x2="1647" y2="1017"/>
</svg>
