<?xml version="1.0" encoding="utf-8"?>
<!-- Generator: Adobe Illustrator 22.1.0, SVG Export Plug-In . SVG Version: 6.00 Build 0)  -->
<svg version="1.1" id="Layer_1" xmlns="http://www.w3.org/2000/svg" xmlns:xlink="http://www.w3.org/1999/xlink" x="0px" y="0px"
	 viewBox="0 0 2000 2000" style="enable-background:new 0 0 2000 2000;" xml:space="preserve">
<style type="text/css">
	.st0{fill:none;stroke:#ED7E28;stroke-width:100;stroke-linecap:round;stroke-linejoin:round;}
	.st1{fill:none;stroke:#ED7E28;stroke-width:100;stroke-linecap:round;stroke-linejoin:round;stroke-dasharray:58.5,146.25;}
	.st2{fill:none;stroke:#ED7E28;stroke-width:120;stroke-linecap:round;stroke-linejoin:round;}
	.st3{fill:none;stroke:#ED7E28;stroke-width:120;stroke-linecap:round;stroke-linejoin:round;stroke-dasharray:74,185;}
	.st4{fill:none;stroke:#ED7E28;stroke-width:120;stroke-linecap:round;stroke-linejoin:round;stroke-dasharray:73.1515,182.8788;}
</style>
<g>
	<g>
		<polyline class="st0" points="1871,473 1871,513 1831,513 		"/>
		<line class="st1" x1="1684.8" y1="513" x2="1553.1" y2="513"/>
		<polyline class="st0" points="1480,513 1440,513 1440,473 		"/>
		<line class="st1" x1="1440" y1="326.8" x2="1440" y2="195.1"/>
		<polyline class="st0" points="1440,122 1440,82 1480,82 		"/>
		<line class="st1" x1="1626.3" y1="82" x2="1757.9" y2="82"/>
		<polyline class="st0" points="1831,82 1871,82 1871,122 		"/>
		<line class="st1" x1="1871" y1="268.3" x2="1871" y2="399.9"/>
	</g>
</g>
<g>
	<g>
		<polyline class="st2" points="1359,1859 1359,1899 1319,1899 		"/>
		<line class="st3" x1="1134" y1="1899" x2="708.5" y2="1899"/>
		<polyline class="st2" points="616,1899 576,1899 576,1859 		"/>
		<line class="st4" x1="576" y1="1676.1" x2="576" y2="743.4"/>
		<polyline class="st2" points="576,652 576,612 616,612 		"/>
		<line class="st3" x1="801" y1="612" x2="1226.5" y2="612"/>
		<polyline class="st2" points="1319,612 1359,612 1359,652 		"/>
		<line class="st4" x1="1359" y1="834.9" x2="1359" y2="1767.6"/>
	</g>
</g>
</svg>
