<?xml version="1.0" encoding="utf-8"?>
<!-- Generator: Adobe Illustrator 22.1.0, SVG Export Plug-In . SVG Version: 6.00 Build 0)  -->
<svg version="1.1" id="Layer_1" xmlns="http://www.w3.org/2000/svg" xmlns:xlink="http://www.w3.org/1999/xlink" x="0px" y="0px"
	 viewBox="0 0 2000 2000" style="enable-background:new 0 0 2000 2000;" xml:space="preserve">
<style type="text/css">
	.st0{fill:#767676;}
	.st1{fill:none;stroke:#000000;stroke-width:80;stroke-miterlimit:10;}
	.st2{fill:#ED7E28;}
</style>
<g>
	<circle class="st0" cx="220.5" cy="1443.5" r="200.5"/>
	<path d="M220.5,1263c48.2,0,93.5,18.8,127.6,52.9c34.1,34.1,52.9,79.4,52.9,127.6s-18.8,93.5-52.9,127.6
		c-34.1,34.1-79.4,52.9-127.6,52.9s-93.5-18.8-127.6-52.9C58.8,1537,40,1491.7,40,1443.5s18.8-93.5,52.9-127.6
		C127,1281.8,172.3,1263,220.5,1263 M220.5,1223C98.7,1223,0,1321.7,0,1443.5S98.7,1664,220.5,1664S441,1565.3,441,1443.5
		S342.3,1223,220.5,1223L220.5,1223z"/>
</g>
<g>
	<circle class="st0" cx="1779.5" cy="1456.5" r="200.5"/>
	<path d="M1779.5,1276c48.2,0,93.5,18.8,127.6,52.9c34.1,34.1,52.9,79.4,52.9,127.6s-18.8,93.5-52.9,127.6
		c-34.1,34.1-79.4,52.9-127.6,52.9s-93.5-18.8-127.6-52.9c-34.1-34.1-52.9-79.4-52.9-127.6s18.8-93.5,52.9-127.6
		C1686,1294.8,1731.3,1276,1779.5,1276 M1779.5,1236c-121.8,0-220.5,98.7-220.5,220.5s98.7,220.5,220.5,220.5
		s220.5-98.7,220.5-220.5S1901.3,1236,1779.5,1236L1779.5,1236z"/>
</g>
<g>
	<line class="st1" x1="432" y1="1445" x2="1584" y2="1445"/>
</g>
<g>
	<circle class="st0" cx="220.5" cy="558.5" r="200.5"/>
	<path d="M220.5,378c48.2,0,93.5,18.8,127.6,52.9C382.2,465,401,510.3,401,558.5s-18.8,93.5-52.9,127.6
		C314,720.2,268.7,739,220.5,739S127,720.2,92.9,686.1C58.8,652,40,606.7,40,558.5S58.8,465,92.9,430.9
		C127,396.8,172.3,378,220.5,378 M220.5,338C98.7,338,0,436.7,0,558.5S98.7,779,220.5,779S441,680.3,441,558.5S342.3,338,220.5,338
		L220.5,338z"/>
</g>
<g>
	<circle class="st0" cx="1779.5" cy="571.5" r="200.5"/>
	<path d="M1779.5,391c48.2,0,93.5,18.8,127.6,52.9c34.1,34.1,52.9,79.4,52.9,127.6s-18.8,93.5-52.9,127.6
		c-34.1,34.1-79.4,52.9-127.6,52.9s-93.5-18.8-127.6-52.9c-34.1-34.1-52.9-79.4-52.9-127.6s18.8-93.5,52.9-127.6
		C1686,409.8,1731.3,391,1779.5,391 M1779.5,351c-121.8,0-220.5,98.7-220.5,220.5S1657.7,792,1779.5,792S2000,693.3,2000,571.5
		S1901.3,351,1779.5,351L1779.5,351z"/>
</g>
<g>
	<line class="st1" x1="432" y1="560" x2="1584" y2="560"/>
</g>
<g>
	<line class="st1" x1="216" y1="765" x2="216" y2="1242"/>
</g>
<g>
	<line class="st1" x1="1791" y1="783" x2="1791" y2="1260"/>
</g>
<g>
	<circle class="st2" cx="1003.5" cy="994.5" r="200.5"/>
	<path d="M1003.5,814c48.2,0,93.5,18.8,127.6,52.9c34.1,34.1,52.9,79.4,52.9,127.6s-18.8,93.5-52.9,127.6
		c-34.1,34.1-79.4,52.9-127.6,52.9s-93.5-18.8-127.6-52.9c-34.1-34.1-52.9-79.4-52.9-127.6s18.8-93.5,52.9-127.6
		C910,832.8,955.3,814,1003.5,814 M1003.5,774C881.7,774,783,872.7,783,994.5s98.7,220.5,220.5,220.5s220.5-98.7,220.5-220.5
		S1125.3,774,1003.5,774L1003.5,774z"/>
</g>
</svg>
