<?xml version="1.0" encoding="utf-8"?>
<!-- Generator: Adobe Illustrator 22.1.0, SVG Export Plug-In . SVG Version: 6.00 Build 0)  -->
<svg version="1.1" id="Layer_1" xmlns="http://www.w3.org/2000/svg" xmlns:xlink="http://www.w3.org/1999/xlink" x="0px" y="0px"
	 viewBox="0 0 2000 2000" style="enable-background:new 0 0 2000 2000;" xml:space="preserve">
<style type="text/css">
	.st0{fill:#757575;}
	.st1{fill:#767676;}
	.st2{fill:none;stroke:#000000;stroke-width:80;stroke-miterlimit:10;}
	.st3{fill:#ED7E28;}
</style>
<g>
	<circle class="st0" cx="220.5" cy="1779.5" r="200.5"/>
	<path d="M220.5,1599c48.2,0,93.5,18.8,127.6,52.9c34.1,34.1,52.9,79.4,52.9,127.6s-18.8,93.5-52.9,127.6
		c-34.1,34.1-79.4,52.9-127.6,52.9s-93.5-18.8-127.6-52.9C58.8,1873,40,1827.7,40,1779.5s18.8-93.5,52.9-127.6
		C127,1617.8,172.3,1599,220.5,1599 M220.5,1559C98.7,1559,0,1657.7,0,1779.5S98.7,2000,220.5,2000S441,1901.3,441,1779.5
		S342.3,1559,220.5,1559L220.5,1559z"/>
</g>
<g>
	<circle class="st1" cx="956.5" cy="220.5" r="200.5"/>
	<path d="M956.5,40c48.2,0,93.5,18.8,127.6,52.9c34.1,34.1,52.9,79.4,52.9,127.6s-18.8,93.5-52.9,127.6
		c-34.1,34.1-79.4,52.9-127.6,52.9s-93.5-18.8-127.6-52.9C794.8,314,776,268.7,776,220.5s18.8-93.5,52.9-127.6
		C863,58.8,908.3,40,956.5,40 M956.5,0C834.7,0,736,98.7,736,220.5S834.7,441,956.5,441S1177,342.3,1177,220.5S1078.3,0,956.5,0
		L956.5,0z"/>
</g>
<g>
	<circle class="st0" cx="1779.5" cy="1779.5" r="200.5"/>
	<path d="M1779.5,1599c48.2,0,93.5,18.8,127.6,52.9c34.1,34.1,52.9,79.4,52.9,127.6s-18.8,93.5-52.9,127.6
		c-34.1,34.1-79.4,52.9-127.6,52.9s-93.5-18.8-127.6-52.9c-34.1-34.1-52.9-79.4-52.9-127.6s18.8-93.5,52.9-127.6
		C1686,1617.8,1731.3,1599,1779.5,1599 M1779.5,1559c-121.8,0-220.5,98.7-220.5,220.5s98.7,220.5,220.5,220.5
		s220.5-98.7,220.5-220.5S1901.3,1559,1779.5,1559L1779.5,1559z"/>
</g>
<g>
	<line class="st2" x1="864" y1="405" x2="306" y2="1602"/>
</g>
<line class="st2" x1="1063" y1="385" x2="1691" y2="1597"/>
<line class="st2" x1="422" y1="1780" x2="1576" y2="1780"/>
<g>
	<circle class="st3" cx="1003.5" cy="1291.5" r="200.5"/>
	<path d="M1003.5,1111c48.2,0,93.5,18.8,127.6,52.9c34.1,34.1,52.9,79.4,52.9,127.6s-18.8,93.5-52.9,127.6
		c-34.1,34.1-79.4,52.9-127.6,52.9s-93.5-18.8-127.6-52.9c-34.1-34.1-52.9-79.4-52.9-127.6s18.8-93.5,52.9-127.6
		C910,1129.8,955.3,1111,1003.5,1111 M1003.5,1071c-121.8,0-220.5,98.7-220.5,220.5s98.7,220.5,220.5,220.5s220.5-98.7,220.5-220.5
		S1125.3,1071,1003.5,1071L1003.5,1071z"/>
</g>
</svg>
