<?xml version="1.0" encoding="utf-8"?>
<!-- Generator: Adobe Illustrator 21.0.0, SVG Export Plug-In . SVG Version: 6.00 Build 0)  -->
<svg version="1.1" id="Layer_1" xmlns="http://www.w3.org/2000/svg" xmlns:xlink="http://www.w3.org/1999/xlink" x="0px" y="0px"
	 viewBox="0 0 20 20" style="enable-background:new 0 0 20 20;" xml:space="preserve">
<style type="text/css">
	.st0{fill:#FFFFFF;stroke:#F15A24;stroke-width:2;stroke-linecap:round;stroke-linejoin:round;stroke-miterlimit:10;}
	.st1{fill:none;stroke:#000000;stroke-linecap:round;stroke-linejoin:round;stroke-miterlimit:10;}
</style>
<path class="st0" d="M20,12.5c0,2,0,7.5,0,7.5s-5.4,0-7.5,0C8.4,20,5,16.6,5,12.5S8.4,5,12.5,5S20,8.4,20,12.5z"/>
<line class="st1" x1="12.5" y1="7.5" x2="12.5" y2="17.5"/>
<line class="st1" x1="7.5" y1="12.5" x2="17.5" y2="12.5"/>
<line class="st1" x1="12.5" y1="7.5" x2="11.2" y2="10"/>
<line class="st1" x1="13.7" y1="10" x2="12.5" y2="7.5"/>
<line class="st1" x1="7.5" y1="12.5" x2="10" y2="11.2"/>
<line class="st1" x1="10.1" y1="13.7" x2="7.5" y2="12.5"/>
<line class="st1" x1="12.5" y1="17.5" x2="11.2" y2="15"/>
<line class="st1" x1="13.7" y1="15" x2="12.5" y2="17.5"/>
<line class="st1" x1="17.5" y1="12.5" x2="15" y2="11.2"/>
<line class="st1" x1="15" y1="13.7" x2="17.5" y2="12.5"/>
</svg>
